<svg aria-hidden="true" style="position:absolute;width:0;height:0" xmlns="http://www.w3.org/2000/svg" overflow="hidden"><defs><symbol id="icon-facebook" viewBox="0 0 20 32"><path d="M16.948 2.01l-3.523-.006c-3.956 0-6.513 2.676-6.513 6.825v3.145H3.369a.562.562 0 0 0-.553.567v4.561c0 .311.247.564.553.564h3.543v11.503a.56.56 0 0 0 .553.567h4.623a.56.56 0 0 0 .553-.567V17.666h4.143a.56.56 0 0 0 .553-.564l.003-4.561a.57.57 0 0 0-.163-.401.554.554 0 0 0-.393-.166h-4.143V9.309c0-1.283.3-1.935 1.935-1.935h2.374a.562.562 0 0 0 .556-.564V2.574a.561.561 0 0 0-.556-.564z"/></symbol><symbol id="icon-twitter" viewBox="0 0 36 32"><path d="M34.471 3.396a12.672 12.672 0 0 1-4.16 1.714c-1.195-1.372-2.894-2.229-4.779-2.229-3.616 0-6.546 3.157-6.546 7.051 0 .548.057 1.092.171 1.604-5.444-.292-10.265-3.1-13.497-7.367a7.448 7.448 0 0 0-.882 3.545c0 2.446 1.156 4.604 2.908 5.863a6.156 6.156 0 0 1-2.965-.878v.085c0 3.417 2.258 6.261 5.252 6.912a6.145 6.145 0 0 1-2.958.121c.836 2.798 3.253 4.832 6.116 4.892-2.24 1.892-5.063 3.019-8.128 3.019-.53 0-1.052-.036-1.564-.096 2.898 2.002 6.34 3.164 10.037 3.164 12.039 0 18.624-10.738 18.624-20.053l-.021-.914a13.782 13.782 0 0 0 3.275-3.641 12.449 12.449 0 0 1-3.762 1.106c1.355-.871 2.389-2.254 2.88-3.897z"/></symbol></defs></svg>